<?xml version="1.0" standalone="no"?><!-- Generator: Gravit.io --><svg xmlns="http://www.w3.org/2000/svg" xmlns:xlink="http://www.w3.org/1999/xlink" style="isolation:isolate" viewBox="0 0 260 260" width="260" height="260"><defs><clipPath id="_clipPath_4sA7kS0byFHij22bQT929cZrgOwcOQIO"><rect width="260" height="260"/></clipPath></defs><g clip-path="url(#_clipPath_4sA7kS0byFHij22bQT929cZrgOwcOQIO)"><path d=" M 157.858 10.405 C 157.858 10.928 161.558 12.184 166.158 13.23 C 175.858 15.531 192.658 24.003 195.558 28.187 C 198.658 32.685 203.558 45.969 205.358 54.965 C 209.758 77.454 207.858 101.512 199.858 127.452 C 196.058 139.586 188.158 158.309 182.758 167.932 C 177.858 176.614 165.858 193.664 164.658 193.664 C 163.358 193.664 146.458 183.099 139.158 177.765 C 123.758 166.572 106.058 146.385 98.958 132.055 C 92.758 119.503 91.458 113.122 91.558 94.294 C 91.558 81.01 91.958 76.512 93.758 69.19 C 94.958 64.379 96.458 59.567 96.958 58.521 C 97.658 57.161 97.358 56.325 95.358 55.069 C 86.858 49.63 87.458 50.467 89.558 48.061 C 91.958 45.237 96.958 43.04 101.058 43.04 C 103.658 43.04 106.358 41.367 113.358 35.614 C 118.358 31.534 123.058 27.873 123.858 27.35 C 126.158 25.991 122.658 22.643 113.958 18.146 C 105.058 13.543 100.858 13.439 83.858 16.786 L 73.358 18.983 L 68.158 24.735 C 61.758 31.848 55.358 45.028 53.258 55.592 C 52.058 61.45 51.758 67.203 52.158 78.081 C 52.658 94.713 55.158 106.637 61.358 122.222 C 63.358 127.348 65.258 132.368 65.558 133.519 C 67.758 141.05 53.858 118.457 50.058 108.415 C 46.558 99.001 43.858 82.684 43.858 70.445 C 43.858 58.312 46.858 36.66 48.958 34.045 C 51.558 30.802 48.658 31.43 43.258 35.3 C 29.258 45.342 16.158 61.032 8.158 77.244 C 4.258 85.089 3.858 86.763 3.858 93.353 C 3.858 97.955 4.658 102.976 5.958 107.16 C 9.158 117.097 17.358 132.891 24.458 142.619 C 27.958 147.326 33.758 155.799 37.258 161.238 C 45.758 174.417 61.258 190.212 75.458 199.94 C 90.958 210.713 110.958 220.86 122.658 223.997 C 124.958 224.625 126.858 225.566 126.858 226.194 C 126.858 227.658 118.658 231.215 110.658 233.202 C 106.858 234.248 103.858 235.294 103.858 235.713 C 103.858 237.072 112.858 236.654 119.158 234.876 C 122.458 234.039 127.758 231.947 130.758 230.378 C 136.358 227.449 136.358 227.449 144.358 228.809 C 148.758 229.541 154.058 230.169 156.158 230.169 C 158.158 230.273 159.858 230.692 159.858 231.11 C 159.858 232.261 148.358 239.164 141.858 241.779 C 137.258 243.662 135.258 243.976 129.358 243.348 C 119.558 242.407 103.658 238.641 102.358 237.072 C 101.858 236.34 99.358 235.503 97.058 235.19 C 92.458 234.562 78.458 228.077 70.558 222.742 C 63.158 217.826 63.858 220.127 71.558 225.985 C 98.058 246.382 126.658 254.227 157.358 249.624 C 179.858 246.173 195.858 239.583 211.558 227.24 C 231.558 211.446 244.758 190.735 252.358 162.807 C 255.858 150.15 256.158 147.954 256.558 131.741 C 257.158 112.704 256.458 106.637 251.958 90.424 C 248.658 78.186 245.458 70.968 238.758 60.299 C 233.058 51.095 219.058 35.509 210.458 28.71 C 203.158 23.062 188.858 15.74 179.358 12.916 C 171.658 10.615 157.858 9.046 157.858 10.405 Z  M 204.458 27.455 C 218.258 36.869 235.158 56.534 242.558 71.805 C 245.958 78.813 250.658 93.667 252.358 102.871 C 254.558 114.482 254.558 138.121 252.358 149.209 C 243.458 194.71 218.058 226.926 180.458 240.106 C 171.858 243.139 170.858 243.244 170.858 241.884 C 170.858 241.361 172.558 240.315 174.658 239.583 C 180.358 237.7 186.658 233.516 188.858 230.273 C 190.058 228.495 192.258 227.031 194.158 226.612 C 205.458 224.102 222.658 205.17 234.558 182.158 C 244.858 162.179 248.358 145.652 247.658 121.385 C 247.058 104.859 245.358 96.177 239.558 81.428 C 235.858 71.91 230.758 62.81 230.158 64.692 C 229.958 65.32 231.458 69.295 233.458 73.583 C 239.958 87.077 243.558 100.779 245.358 118.875 C 246.758 132.787 242.158 158.1 235.558 173.162 C 232.158 180.589 232.058 180.798 224.258 184.982 C 215.858 189.48 206.058 193.245 205.158 192.199 C 204.858 191.885 206.658 188.224 209.158 184.04 C 221.258 163.539 228.358 142.305 231.858 115.737 C 234.658 94.713 231.358 72.014 222.858 52.977 C 219.258 45.132 208.158 32.371 202.358 29.442 C 197.258 26.932 192.958 22.12 195.758 22.12 C 196.258 22.12 200.158 24.526 204.458 27.455 Z  M 205.558 34.568 C 212.258 40.007 217.158 46.283 220.158 52.873 C 231.458 77.663 231.258 109.147 219.858 143.77 C 212.858 165.003 198.158 193.873 193.558 195.128 C 190.658 195.965 174.358 195.965 173.558 195.128 C 173.258 194.71 174.458 192.513 176.258 190.107 C 183.058 181.426 196.858 155.694 202.258 142.096 C 204.258 137.075 208.158 120.862 210.458 108.415 C 212.958 94.399 212.758 72.433 209.958 60.299 C 207.458 49.316 204.658 41.158 201.358 34.882 C 200.058 32.476 199.358 30.488 199.858 30.488 C 200.258 30.488 202.858 32.267 205.558 34.568 Z  M 44.258 164.271 C 45.558 166.468 61.958 176.823 70.558 181.007 C 89.658 190.107 108.758 195.233 128.158 196.279 C 147.258 197.429 157.958 198.58 159.158 199.835 C 160.058 200.776 151.258 209.563 141.958 216.989 L 136.658 221.278 L 130.258 219.5 C 107.758 213.328 77.758 196.174 59.658 179.02 C 56.058 175.568 52.158 172.744 51.258 172.744 C 49.458 172.744 41.858 165.736 41.858 164.167 C 41.858 163.016 43.658 163.121 44.258 164.271 Z  M 229.858 184.877 C 229.858 187.074 219.658 200.253 210.458 209.981 L 199.358 221.696 L 192.158 223.37 C 184.358 225.148 178.858 225.566 178.858 224.207 C 178.858 223.788 181.158 221.069 183.958 218.245 C 186.758 215.316 191.658 209.667 194.858 205.693 C 200.258 198.789 201.158 198.161 208.658 195.442 C 213.058 193.873 219.258 190.735 222.558 188.434 C 228.258 184.459 229.858 183.727 229.858 184.877 Z  M 164.858 196.802 C 166.058 197.534 166.058 198.057 165.158 198.998 C 164.158 200.044 163.358 200.044 161.358 199.103 C 159.958 198.475 158.858 197.429 158.858 196.802 C 158.858 195.442 162.858 195.442 164.858 196.802 Z  M 187.058 206.006 C 184.858 208.726 179.558 214.479 175.458 218.558 C 169.558 224.416 167.158 226.089 164.958 226.089 C 160.458 226.089 146.458 223.893 145.658 223.161 C 145.258 222.742 148.158 219.814 151.958 216.676 C 155.858 213.538 161.258 208.412 163.858 205.483 C 168.558 200.149 168.858 199.94 173.058 200.567 C 175.458 200.881 180.058 200.672 183.358 200.149 C 186.658 199.73 189.758 199.626 190.258 200.044 C 190.758 200.463 189.258 203.182 187.058 206.006 Z  M 186.858 228.914 C 186.758 231.006 160.358 241.466 157.558 240.42 C 156.958 240.21 159.458 237.909 163.358 235.399 C 168.758 231.842 171.858 230.483 177.358 229.646 C 186.658 228.077 186.858 228.077 186.858 228.914 Z  M 153.858 243.348 C 155.558 245.545 154.958 245.963 148.958 246.696 C 143.058 247.428 142.258 246.068 147.158 243.558 C 151.258 241.466 152.358 241.361 153.858 243.348 Z " fill="rgb(255,255,255)"/><path d=" M 130.3 33.7 C 119.4 44.5 112.8 55.5 108.9 69.6 C 107.1 76.2 106.8 79.3 107.2 89.9 C 107.8 104.8 109.9 112.2 117 124 C 124.5 136.5 127.7 139.8 134 141.7 C 145.1 144.9 153.8 143.1 160.4 136.1 C 162 134.5 165.7 131.9 168.7 130.4 C 172.7 128.5 175 126.5 177.1 123.2 C 178.7 120.7 180 117.9 180 117 C 180 116.1 181.4 114.4 183 113.2 C 185.4 111.4 186 110.2 186 107.4 C 186 102.8 178.4 84.7 172.5 75.1 C 168.5 68.6 168.1 67.6 168.7 63.2 L 169.2 58.3 L 164.9 55.8 C 161.2 53.6 159.6 51.6 155 42.9 C 149.3 32.2 144.3 27.1 139.4 27 C 138.1 27 134.6 29.6 130.3 33.7 Z  M 156.2 59 C 158.9 59 163 63.5 163 66.5 C 163 67.9 162.5 69 161.9 69 C 161.3 69 157.7 67 153.9 64.5 C 146.7 59.9 145.6 57.3 151.2 58.4 C 152.9 58.7 155.1 59 156.2 59 Z  M 150.6 98.9 C 156.3 99.5 161.2 100.6 163.6 101.8 C 168.8 104.5 174.4 110.4 173.7 112.4 C 172.7 115 170 114.2 165.3 109.9 C 159.3 104.4 154.1 102.3 144.3 101.5 C 136.3 100.8 133.6 99.6 138.3 98.7 C 139.5 98.5 140.7 98.2 141 98.2 C 141.3 98.1 145.6 98.5 150.6 98.9 Z  M 143.7 106.6 C 143.4 106.9 142.5 107 141.8 106.7 C 141 106.4 141.3 106.1 142.4 106.1 C 143.5 106 144.1 106.3 143.7 106.6 Z  M 157.1 107.5 C 162.2 109.3 169 114.4 169 116.6 C 169 119.7 165.9 119.3 162.2 115.7 C 158.4 112.1 150.9 108.1 147.8 108 C 146.8 108 146 107.5 146 107 C 146 105.5 152 105.8 157.1 107.5 Z  M 159.5 116.3 C 162 117.7 163.6 119.4 163.8 120.8 C 164.3 123.8 162.3 123.6 159.1 120.1 C 157.6 118.5 154.4 116.6 151.9 115.9 C 145.4 114.1 144.5 112.6 150.5 113.5 C 153.3 113.9 157.3 115.1 159.5 116.3 Z  M 157 121 C 159.2 122.1 161 123.5 161 124 C 161 126.1 158.9 125.9 155.4 123.5 C 153.4 122.1 151.1 121 150.4 121 C 149.6 121 149 120.5 149 120 C 149 118.4 152.8 118.9 157 121 Z " fill="rgb(255,255,255)"/></g></svg>