<?xml version="1.0" standalone="no"?>
<!DOCTYPE svg PUBLIC "-//W3C//DTD SVG 20010904//EN"
 "http://www.w3.org/TR/2001/REC-SVG-20010904/DTD/svg10.dtd">
<svg version="1.0" xmlns="http://www.w3.org/2000/svg"
 width="731.000000pt" height="255.000000pt" viewBox="0 0 731.000000 255.000000"
 preserveAspectRatio="xMidYMid meet">
<metadata>
Created by potrace 1.15, written by Peter Selinger 2001-2017
</metadata>
<g transform="translate(0.000000,255.000000) scale(0.100000,-0.100000)"
fill="#000000" stroke="none">
<path d="M1005 2435 c-111 -20 -152 -34 -184 -61 -49 -41 -122 -161 -154 -253
-27 -76 -31 -102 -35 -231 -6 -202 26 -364 113 -572 l35 -83 -33 36 c-80 90
-156 257 -189 419 -28 132 -21 342 15 485 14 55 24 101 23 102 -5 5 -122 -80
-183 -134 -121 -106 -272 -341 -289 -448 -18 -120 94 -377 250 -575 39 -49 92
-120 118 -157 176 -252 482 -470 831 -592 l109 -38 -72 -32 c-93 -41 -192 -64
-257 -59 -57 5 -229 83 -318 144 l-50 35 40 -36 c119 -106 329 -218 492 -262
89 -24 115 -27 288 -27 203 -1 264 8 425 62 291 97 529 311 659 593 39 85 86
218 80 224 -2 1 -31 6 -64 9 l-60 7 -28 -80 c-15 -44 -38 -92 -50 -107 -12
-15 -22 -34 -23 -41 -8 -52 -260 -340 -329 -375 -29 -15 -93 -30 -185 -43
l-44 -6 80 83 c44 46 99 108 122 139 36 48 49 58 99 73 70 22 177 76 218 111
28 24 27 24 -25 -4 -58 -31 -168 -71 -196 -71 -13 0 -12 7 10 43 36 58 146
274 146 287 0 5 -13 10 -29 10 -28 0 -33 -8 -85 -111 -57 -114 -126 -224 -154
-247 -17 -13 -232 -18 -232 -5 0 4 8 16 19 27 30 34 135 195 181 279 l42 77
-41 0 c-23 0 -41 -4 -41 -8 0 -19 -108 -195 -171 -279 l-70 -92 -72 41 c-130
73 -263 166 -341 239 -101 94 -225 243 -265 319 -114 213 -129 470 -43 725
l19 56 -48 24 c-60 31 -64 37 -36 63 29 27 70 42 113 42 28 0 50 12 107 58 40
31 90 70 111 86 l39 29 -29 24 c-16 12 -59 39 -95 58 -57 30 -76 35 -130 34
-35 0 -95 -7 -134 -14z m-206 -1640 c202 -101 470 -165 691 -165 85 0 262 -30
257 -44 -5 -15 -178 -167 -214 -187 -27 -16 -32 -16 -118 10 -256 77 -501 215
-712 401 -80 71 -94 94 -35 56 21 -13 80 -45 131 -71z m1281 -206 c0 -6 -54
-65 -119 -131 l-119 -121 -83 7 c-109 9 -159 17 -159 26 0 3 20 21 43 38 24
17 79 65 123 106 l79 75 110 4 c60 1 113 4 118 5 4 1 7 -3 7 -9z m-418 -292
l103 -12 -62 -38 c-35 -21 -91 -50 -125 -64 -55 -22 -72 -25 -136 -19 -89 7
-273 44 -287 57 -5 5 16 9 57 9 70 0 191 33 258 70 21 12 45 17 62 14 14 -3
73 -11 130 -17z"/>
<path d="M1346 2178 c-156 -159 -215 -292 -224 -505 -7 -194 40 -350 152 -501
56 -76 89 -97 174 -112 95 -16 166 5 227 70 16 17 50 40 75 51 25 11 55 30 68
42 29 27 62 89 62 117 0 11 6 20 13 20 30 0 50 38 45 82 -6 53 -97 267 -144
337 -28 44 -34 62 -34 106 0 52 -1 54 -48 88 -40 28 -58 52 -97 128 -26 52
-55 102 -64 113 -17 20 -83 56 -102 56 -7 0 -53 -42 -103 -92z m269 -669 c75
-14 145 -49 179 -90 21 -24 24 -34 15 -45 -18 -22 -37 -17 -82 25 -23 21 -57
46 -75 55 -39 20 -149 45 -207 47 -39 1 -39 2 -10 9 45 12 115 11 180 -1z"/>
<path d="M4492 2005 c-11 -12 -56 -15 -265 -15 l-252 0 0 -295 0 -295 252 0
c215 0 254 -2 267 -16 15 -14 16 -10 16 47 0 60 -1 61 -19 45 -16 -14 -43 -16
-222 -14 l-204 3 -3 98 -3 97 155 0 c114 0 156 -3 159 -12 3 -7 5 14 5 47 0
33 -2 54 -5 48 -3 -10 -45 -13 -159 -13 l-154 0 0 95 0 95 213 0 c152 0 216
-3 225 -12 9 -9 12 2 12 50 0 34 -1 62 -2 62 -2 -1 -9 -7 -16 -15z"/>
<path d="M5911 1960 c0 -36 3 -59 6 -52 3 9 38 12 124 12 l120 0 -3 -260 -3
-260 50 0 c38 0 46 3 37 12 -9 9 -12 80 -12 260 l0 248 119 0 c86 0 121 -3
124 -12 3 -7 6 16 6 52 0 49 -2 61 -10 48 -9 -16 -33 -18 -274 -18 -241 0
-265 2 -274 18 -8 13 -10 1 -10 -48z"/>
<path d="M5845 2000 c-4 -6 -101 -10 -258 -10 l-252 0 0 -295 0 -295 251 0
c181 0 253 -3 262 -12 9 -9 12 0 12 41 0 44 -2 51 -14 42 -9 -8 -75 -11 -217
-9 l-204 3 -3 98 -3 97 155 0 c114 0 156 -3 159 -12 3 -7 6 14 6 47 1 46 -2
56 -11 47 -8 -8 -58 -12 -160 -12 l-148 0 0 95 0 96 220 -3 220 -3 0 48 c0 47
-3 56 -15 37z"/>
<path d="M6739 1985 c-127 -41 -210 -149 -212 -276 -3 -135 49 -226 160 -281
63 -31 74 -33 168 -33 112 0 161 16 228 75 63 55 90 111 95 200 8 138 -49 239
-165 296 -69 34 -199 43 -274 19z m220 -71 c95 -40 144 -113 144 -219 0 -118
-61 -198 -175 -230 -126 -35 -244 12 -301 120 -30 56 -30 164 0 221 60 113
206 160 332 108z"/>
<path d="M3293 1978 c17 -13 237 -536 237 -563 0 -12 14 -15 66 -15 42 0 63 4
59 10 -6 10 207 543 227 568 8 9 -3 12 -53 11 -35 0 -58 -3 -51 -6 6 -2 12
-11 12 -18 0 -26 -193 -486 -201 -478 -4 4 -51 115 -105 246 -80 196 -95 240
-83 248 9 6 -10 9 -55 9 -58 0 -67 -2 -53 -12z"/>
<path d="M4618 1978 c17 -17 17 -549 0 -566 -9 -9 -2 -12 32 -12 l45 0 -3 246
c-2 151 1 245 7 242 20 -7 391 -464 386 -475 -3 -10 10 -13 48 -13 l52 0 -3
287 c-2 224 0 288 10 295 8 4 -10 8 -41 8 -43 0 -52 -3 -43 -12 14 -14 17
-462 3 -456 -8 3 -350 413 -366 439 -4 6 -1 15 6 20 9 5 -16 9 -65 9 -62 0
-77 -3 -68 -12z"/>
<path d="M4362 1219 c-57 -11 -139 -49 -179 -83 -18 -15 -44 -52 -59 -83 -23
-47 -28 -68 -27 -132 1 -46 7 -91 17 -114 26 -60 89 -121 159 -153 59 -27 69
-29 197 -29 124 0 139 2 190 26 74 35 111 67 144 129 57 105 43 245 -33 331
-83 95 -252 139 -409 108z m234 -114 c83 -37 133 -127 118 -213 -9 -50 -20
-70 -63 -115 -63 -66 -189 -86 -294 -47 -88 33 -137 103 -137 194 0 60 14 94
57 138 73 75 206 93 319 43z"/>
<path d="M3159 1206 c6 -7 47 -137 91 -287 58 -201 76 -277 68 -286 -8 -10 6
-13 75 -13 78 0 85 2 80 19 -6 22 108 395 117 384 4 -4 33 -91 64 -191 45
-144 54 -187 45 -198 -10 -12 3 -14 81 -14 79 0 91 2 81 14 -10 11 4 70 65
278 42 145 83 273 90 286 l14 22 -76 0 c-60 0 -74 -3 -67 -12 7 -9 -6 -72 -43
-202 -29 -104 -55 -191 -58 -193 -2 -2 -11 19 -20 49 -8 29 -35 117 -59 195
-32 100 -41 145 -34 152 8 8 -15 11 -78 11 -65 0 -86 -3 -78 -11 7 -7 8 -21 3
-38 -5 -14 -32 -100 -60 -189 -28 -90 -54 -162 -56 -159 -13 13 -104 361 -99
378 6 18 1 19 -76 19 -68 0 -80 -2 -70 -14z"/>
<path d="M4973 1210 c15 -10 17 -35 17 -290 0 -255 -1 -280 -17 -289 -13 -8 7
-10 75 -11 85 0 92 1 78 16 -13 12 -16 39 -16 130 l0 114 95 0 94 0 88 -116
c48 -64 87 -122 85 -130 -2 -11 16 -14 95 -14 l97 0 -31 33 c-35 37 -173 214
-173 222 0 3 10 5 23 5 34 0 99 41 124 79 17 25 23 48 23 86 0 65 -28 110 -90
145 -45 25 -48 25 -315 28 -194 2 -265 -1 -252 -8z m477 -93 c19 -7 41 -24 50
-39 13 -25 13 -31 0 -55 -23 -42 -68 -52 -232 -52 l-148 -1 0 80 0 80 148 -1
c86 0 161 -5 182 -12z"/>
<path d="M5778 1213 c17 -7 18 -563 0 -581 -9 -9 60 -12 290 -14 l302 -3 0 55
0 55 -225 -3 -225 -3 0 245 c0 186 3 246 13 249 6 3 -28 5 -78 5 -49 0 -84 -2
-77 -5z"/>
<path d="M6478 1213 c9 -3 12 -70 12 -287 0 -212 -3 -285 -12 -295 -11 -10 34
-12 242 -9 240 3 258 5 305 26 92 42 139 106 156 215 20 126 -21 246 -103 302
-68 46 -131 55 -383 54 -126 0 -224 -3 -217 -6z m442 -94 c102 -22 146 -94
138 -225 -6 -83 -21 -113 -78 -151 -31 -22 -43 -23 -196 -23 l-164 0 0 205 0
205 125 0 c68 0 147 -5 175 -11z"/>
</g>
</svg>
